HIERARCHY
ROOT Hips
{
  OFFSET 0.0 0.0 0.0
  CHANNELS 6 XPOSITION YPOSITION ZPOSITION ZROTATION XROTATION YROTATION 
  JOINT RightUpLeg
  {
    OFFSET -0.089458038 -0.086670642 0.001016508
    CHANNELS 3 ZROTATION XROTATION YROTATION 
    JOINT RightLeg
    {
      OFFSET 1.524e-006 -0.44256706 0.04075049
      CHANNELS 3 ZROTATION XROTATION YROTATION 
      JOINT RightFoot
      {
        OFFSET 0.001562862 -0.419119812 -0.041630854
        CHANNELS 3 ZROTATION XROTATION YROTATION 
        End Site
        {
          OFFSET 7.5692e-005 -0.04415155 0.084991702
        }
      }
    }
  }
  JOINT Spine
  {
    OFFSET 0.0 0.11890502 0.0
    CHANNELS 3 ZROTATION XROTATION YROTATION 
    JOINT Spine1
    {
      OFFSET 0.0 0.256575052 0.001270508
      CHANNELS 3 ZROTATION XROTATION YROTATION 
      End Site
      {
        OFFSET -0.002899918 0.215084406 0.0252476
      }
      JOINT RightArm
      {
        OFFSET -0.16272758 -0.05365633 0.001021842
        CHANNELS 3 ZROTATION XROTATION YROTATION 
        JOINT RightForeArm
        {
          OFFSET -0.263648698 -0.000263906 -0.014099794
          CHANNELS 3 ZROTATION XROTATION YROTATION 
          End Site
          {
            OFFSET -0.220319092 0.001914652 0.010174732
          }
        }
      }
      JOINT LeftArm
      {
        OFFSET 0.16272758 -0.05365633 0.001020826
        CHANNELS 3 ZROTATION XROTATION YROTATION 
        JOINT LeftForeArm
        {
          OFFSET 0.26260552 -0.000263144 -0.01410081
          CHANNELS 3 ZROTATION XROTATION YROTATION 
          End Site
          {
            OFFSET 0.220897958 0.001915922 0.01017524
          }
        }
      }
    }
  }
  JOINT LeftUpLeg
  {
    OFFSET 0.089458038 -0.086670642 0.001016508
    CHANNELS 3 ZROTATION XROTATION YROTATION 
    JOINT LeftLeg
    {
      OFFSET -3.048e-006 -0.442569346 0.040725598
      CHANNELS 3 ZROTATION XROTATION YROTATION 
      JOINT LeftFoot
      {
        OFFSET -0.002532888 -0.41911778 -0.041605708
        CHANNELS 3 ZROTATION XROTATION YROTATION 
        End Site
        {
          OFFSET -0.00040005 -0.044151042 0.084991194
        }
      }
    }
  }
}
MOTION
Frames: 16
Frame Time: 0.033333
-0.14563852 0.989564132768 2.04605382 2.06216367058 0.535541579164 177.630093292 3.90007728967 0.435999122572 -0.115303344886 -0.854091570213 3.45225273508 -2.87732583056 -2.81201897682 -30.5756560083 0.205004245936 -0.29914995929 -2.52520460597 -0.498183806138 5.18111768831 3.79266445412 -1.63257636141 76.7751238561 -9.79297752912 8.1657097188 11.514837483 25.2749784198 -1.30306178231 -84.3511833439 -12.8065765192 -17.0914009262 -16.7135770594 52.3585670263 8.19383302271 2.03294369442 0.143996662764 2.17000680804 0.282541660632 6.05650119933 3.16769894341 2.18732261825 -32.9056862512 -0.0884981207456 
-0.14563852 0.989564132768 2.04612494 2.04973251284 0.570506598186 177.617880913 3.87624675965 0.463098565115 -0.141904637186 -0.838126589998 3.4525891219 -2.83174392281 -2.82878367613 -30.5721521212 0.206274447678 -0.289602955655 -2.50251514444 -0.471850011793 5.14542653481 3.79782508892 -1.59881196158 76.7487798165 -9.81845157341 8.14553675509 11.4946713495 25.4738615756 -1.28992241934 -84.2505131857 -12.5871080271 -17.0044918916 -16.7842165833 52.0911138938 8.15575813318 2.01128815277 0.191264079781 2.15941211742 0.280680540804 6.03332892879 3.18606596242 2.22044860884 -32.8795846832 -0.0910916783096 
-0.14563852 0.989564132768 2.04627734 2.05237558261 0.605468522278 177.60006778 3.87488627135 0.487098302393 -0.151305472104 -0.830509541691 3.45286723866 -2.80529657657 -2.82141155414 -30.5643554603 0.205677179652 -0.274893342865 -2.43943301136 -0.42508522733 5.11872775223 3.723553185 -1.54295798292 76.6618861499 -9.82953611666 8.06589162673 11.4700297345 25.8010891086 -1.25780740347 -84.0578540398 -12.2309179307 -16.8378369834 -16.9139287059 51.6939144879 8.09973777538 2.01411286288 0.221641372795 2.16711614392 0.278848716086 6.03506336996 3.19683589008 2.24884319932 -32.8677821164 -0.0933416586821 
-0.14557248 0.989564132768 2.0464526 2.06679645983 0.630430782621 177.566053438 3.89373673968 0.501498475598 -0.141305408148 -0.832488375559 3.45630431792 -2.79128124183 -2.80126484397 -30.5579589881 0.204037827529 -0.286256509808 -2.36344608963 -0.386929149264 5.14683227312 3.61615571738 -1.50479675553 76.5700542565 -9.80424990257 8.00723396213 11.468368291 25.9818176216 -1.23971039037 -83.9217625206 -12.0069466363 -16.7259055509 -17.0145732508 51.4716669625 8.06835390992 2.03910025618 0.227233536817 2.19251719056 0.275188134897 6.06594735095 3.20858381545 2.25486038254 -32.8802813625 -0.0938311244454 
-0.14549374 0.989564132768 2.0465923 2.04944927344 0.675358272878 177.503120075 3.87358469342 0.529297932489 -0.160706853971 -0.820902827262 3.47470378033 -2.71539549228 -2.81060768898 -30.5586556674 0.204736067629 -0.283859246811 -2.35004717947 -0.384323245333 5.09708971294 3.64766508757 -1.49272471634 76.5857636916 -9.74769849757 8.08113490141 11.4900840237 25.9559687707 -1.25756738635 -83.859710252 -11.9895842954 -16.7403616462 -17.0384276865 51.4735794155 8.06821047595 2.02195050495 0.286090530875 2.19182734145 0.27654974378 6.04322800734 3.26828223012 2.24165613277 -32.8730823432 -0.0927519145359 
-0.14546326 0.989564132768 2.04670406 1.99452259968 0.747248468491 177.431280145 3.80239533925 0.573595818042 -0.219310984287 -0.794603717472 3.51603389533 -2.58266463958 -2.84216465705 -30.5691536682 0.207313343463 -0.253703961626 -2.38824095698 -0.403250259812 4.92454675479 3.79163437621 -1.48234539012 76.6919184917 -9.67240932235 8.22546277498 11.5167456671 25.8691485286 -1.28431611469 -83.8017765874 -12.0514077527 -16.8098280852 -17.0120716941 51.5461535905 8.07824658516 1.94836759636 0.41580625526 2.1530566264 0.297165575892 5.94088061083 3.37032205467 2.21078944069 -32.8324836987 -0.0902102570715 
-0.1454277 0.989564132768 2.0468336 1.94463319043 0.823140247824 177.382225727 3.74031318856 0.621593158165 -0.26851581381 -0.778851273533 3.56026449284 -2.48239383403 -2.85620005546 -30.5866491977 0.208512388508 -0.280237112117 -2.36764430809 -0.393035525145 4.8342956233 3.80968229732 -1.45050592969 76.7410070612 -9.62158759228 8.26118381057 11.5396054565 25.8182550815 -1.29576169747 -83.7354896015 -12.0755217356 -16.8269633223 -16.9869280602 51.5832722536 8.08359206196 1.88461183589 0.544525892604 2.12329599808 0.309280383809 5.84220657544 3.44340635945 2.17980962361 -32.7966866773 -0.0876756966004 
-0.14531594 0.989564132768 2.04696822 1.92999545471 0.889055415296 177.359781725 3.73136649452 0.675592100135 -0.277019265925 -0.784593968521 3.57661596572 -2.45758957517 -2.84783157962 -30.6018497837 0.207964199126 -0.397602760585 -2.26755983864 -0.341267226909 4.94134773948 3.65100334252 -1.40595399312 76.6934074729 -9.62839472956 8.16280261954 11.5578147408 25.7690077101 -1.30199744674 -83.7032920898 -12.0891522318 -16.7981296787 -16.9701804363 51.6506828056 8.09293234565 1.87848643686 0.627963696949 2.13532823008 0.296623349586 5.80552675205 3.45082074323 2.16971609812 -32.7856866576 -0.0869511629399 
-0.14515846 0.989564132768 2.04707744 1.93679149294 0.94498602014 177.346640441 3.74774742259 0.742291512062 -0.273822977517 -0.789141860652 3.55372693459 -2.46133572049 -2.84730629539 -30.5981512363 0.207840081782 -0.48914458438 -2.21616949532 -0.301125217981 5.03319286637 3.5576790528 -1.37424889532 76.6703282637 -9.62919898434 8.0772766983 11.5599329533 25.6935477801 -1.27609021905 -83.6908952964 -12.1541158686 -16.8079583209 -16.9399790474 51.8469107253 8.11960679568 1.89731492053 0.695507277568 2.15615902639 0.287214016952 5.78195107347 3.43720774933 2.16523848223 -32.7694854489 -0.0865785574444 
-0.14504416 0.989569212768 2.04720952 1.93871888694 0.981936383055 177.334113874 3.74528343184 0.79548950763 -0.294128356187 -0.769063772535 3.51081648457 -2.44208589953 -2.86825171081 -30.5712505362 0.209292284054 -0.461980014916 -2.28686707587 -0.30774511203 4.92299886316 3.65167013974 -1.36256692397 76.7215888334 -9.52289306632 8.05776455539 11.532625857 25.6144200386 -1.14748330651 -83.6486164255 -12.2345695206 -16.8751110333 -16.9055378185 52.1284272173 8.15837068054 1.89355191318 0.759767618271 2.14438868946 0.308466870926 5.71995558081 3.45472206191 2.1387680841 -32.7289892573 -0.0843994936454 
-0.14498066 0.989576832768 2.0474305 1.9290887471 0.984922349661 177.320699382 3.7223707085 0.796886868284 -0.328631777151 -0.73208021917 3.48334866538 -2.40023711704 -2.89696177065 -30.5403473453 0.211431694069 -0.392337778633 -2.39406177226 -0.324082871164 4.7571883371 3.75255843708 -1.35179881057 76.7460340804 -9.35128968607 8.01189556624 11.4911683162 25.543145307 -0.948625123586 -83.5895557797 -12.249821333 -16.9295237353 -16.9015660635 52.3351907038 8.18683634768 1.8704556285 0.784966587357 2.11179822839 0.342463417148 5.64950772905 3.50062456167 2.11105672598 -32.6892887828 -0.0821043766615 
-0.14492732 0.989584452768 2.04769212 1.91835766614 0.963933498506 177.30582323 3.70319964816 0.755086003842 -0.34903029719 -0.703879488665 3.48664273755 -2.36187429235 -2.91437811271 -30.5251433443 0.212675602251 -0.37921154243 -2.45066269613 -0.315988990275 4.72579123815 3.73118762894 -1.33653355122 76.7028058132 -9.27072504349 7.93516607488 11.4775070841 25.4860449256 -0.851017664921 -83.5642704194 -12.207169363 -16.9286580088 -16.9270853578 52.3626344039 8.19014215924 1.85560252838 0.763090238498 2.09378573889 0.356609299208 5.61653840592 3.53891118706 2.12193572322 -32.6729885363 -0.0829209778036 
-0.14486636 0.989592072768 2.04793596 1.91212938739 0.958938709233 177.305427079 3.69795577043 0.726686344078 -0.351328255639 -0.697157728748 3.50205079055 -2.35349727877 -2.90645210506 -30.5204441741 0.211968811074 -0.393752508245 -2.45886276512 -0.315890859667 4.7512272895 3.69449286452 -1.33948419294 76.6801090946 -9.30834657921 7.93951349029 11.5162419407 25.4614921031 -0.942331637874 -83.5717631369 -12.1984583105 -16.9141643474 -16.9399756323 52.2699999633 8.17701197433 1.85478183846 0.741204124602 2.09537546542 0.350581870709 5.61485177608 3.53719254071 2.14779119088 -32.6672887435 -0.0850539111453 
-0.1448181 0.989597152768 2.04824584 1.90713545189 0.995932080994 177.347596667 3.69637842361 0.74118587519 -0.353929623898 -0.702901704397 3.51614083047 -2.39220588179 -2.87841140376 -30.5112473244 0.209743370023 -0.387429060414 -2.40275425519 -0.353710977803 4.7114375956 3.68834868247 -1.36983787378 76.6975670581 -9.32957224583 8.01782758554 11.5847427616 25.4377349976 -1.08234080418 -83.5792831752 -12.255090824 -16.93149766 -16.9241039802 52.2015512225 8.16793892179 1.85564905904 0.74929736516 2.09817947151 0.343043849826 5.62177929545 3.48036024418 2.13345910612 -32.6519891197 -0.0838516577791 
-0.14478 0.989599692768 2.04875892 1.89435189909 1.05693997099 177.434667919 3.68489047232 0.760984299077 -0.368232466907 -0.708091901114 3.54711424426 -2.46833154174 -2.85971674911 -30.5019514369 0.208214514887 -0.407231913252 -2.24034751121 -0.392199787467 4.70283582612 3.57453211769 -1.40212834013 76.6405964502 -9.25674620757 7.99759998031 11.6390530108 25.3557676049 -1.10617325519 -83.5885244212 -12.2881173499 -16.9538955578 -16.920359329 52.2301492246 8.17192092208 1.847415266 0.760692788738 2.09188438498 0.338201138982 5.63501876338 3.38437367478 2.09373493936 -32.6246922687 -0.0806202579302 
-0.14475206 0.989599692768 2.04941678 1.87149296348 1.10197717116 177.532039096 3.66267400138 0.740383274602 -0.384932146025 -0.711423325882 3.60763292195 -2.55025709952 -2.86640606563 -30.5057490221 0.208802978373 -0.491554147053 -2.03615153545 -0.395549755131 4.83756472259 3.33307874067 -1.41980220166 76.4879280619 -9.22250903059 7.8712372118 11.6645979183 25.2672278627 -1.07219007586 -83.6144859702 -12.2262025389 -16.9262913483 -16.9646548133 52.3137336645 8.18251027661 1.82822136721 0.740712511064 2.07827373895 0.332329043926 5.65510634973 3.29324550432 2.09011600631 -32.5927918702 -0.0803541673671 
